<?xml version="1.0" encoding="UTF-8" standalone="no"?>
<!DOCTYPE svg PUBLIC "-//W3C//DTD SVG 1.1//EN"
 "http://www.w3.org/Graphics/SVG/1.1/DTD/svg11.dtd">
<!-- Generated by graphviz version 2.43.0 (0)
 -->
<!-- Title: packages Pages: 1 -->
<svg width="1335pt" height="548pt"
 viewBox="0.00 0.00 1334.88 548.00" xmlns="http://www.w3.org/2000/svg" xmlns:xlink="http://www.w3.org/1999/xlink">
<g id="graph0" class="graph" transform="scale(1 1) rotate(0) translate(4 544)">
<title>packages</title>
<polygon fill="white" stroke="transparent" points="-4,4 -4,-544 1330.88,-544 1330.88,4 -4,4"/>
<!-- minitorch -->
<g id="node1" class="node">
<title>minitorch</title>
<polygon fill="none" stroke="black" points="751.38,-36 665.38,-36 665.38,0 751.38,0 751.38,-36"/>
<text text-anchor="middle" x="708.38" y="-14.3" font-family="Times,serif" font-size="14.00">minitorch</text>
</g>
<!-- minitorch.autodiff -->
<g id="node2" class="node">
<title>minitorch.autodiff</title>
<polygon fill="none" stroke="black" points="194.88,-396 49.88,-396 49.88,-360 194.88,-360 194.88,-396"/>
<text text-anchor="middle" x="122.38" y="-374.3" font-family="Times,serif" font-size="14.00">minitorch.autodiff</text>
</g>
<!-- minitorch&#45;&gt;minitorch.autodiff -->
<g id="edge1" class="edge">
<title>minitorch&#45;&gt;minitorch.autodiff</title>
<path fill="none" stroke="black" d="M665.25,-18.47C579.38,-18.55 381.76,-24.44 224.38,-72 157.78,-92.13 124.37,-86.38 85.38,-144 40.54,-210.26 59.64,-248.96 87.38,-324 90.95,-333.67 96.59,-343.35 102.3,-351.74"/>
<polygon fill="black" stroke="black" points="108.19,-359.96 98.71,-354.46 105.28,-355.9 102.37,-351.83 102.37,-351.83 102.37,-351.83 105.28,-355.9 106.02,-349.21 108.19,-359.96 108.19,-359.96"/>
</g>
<!-- minitorch.cuda_conv -->
<g id="node3" class="node">
<title>minitorch.cuda_conv</title>
<polygon fill="none" stroke="black" points="417.38,-108 253.38,-108 253.38,-72 417.38,-72 417.38,-108"/>
<text text-anchor="middle" x="335.38" y="-86.3" font-family="Times,serif" font-size="14.00">minitorch.cuda_conv</text>
</g>
<!-- minitorch&#45;&gt;minitorch.cuda_conv -->
<g id="edge2" class="edge">
<title>minitorch&#45;&gt;minitorch.cuda_conv</title>
<path fill="none" stroke="black" d="M665.23,-27.1C607.41,-37.95 503.33,-57.48 427.5,-71.71"/>
<polygon fill="black" stroke="black" points="417.47,-73.59 426.47,-67.33 422.38,-72.67 427.3,-71.75 427.3,-71.75 427.3,-71.75 422.38,-72.67 428.13,-76.17 417.47,-73.59 417.47,-73.59"/>
</g>
<!-- minitorch.cuda_ops -->
<g id="node4" class="node">
<title>minitorch.cuda_ops</title>
<polygon fill="none" stroke="black" points="670.88,-180 515.88,-180 515.88,-144 670.88,-144 670.88,-180"/>
<text text-anchor="middle" x="593.38" y="-158.3" font-family="Times,serif" font-size="14.00">minitorch.cuda_ops</text>
</g>
<!-- minitorch&#45;&gt;minitorch.cuda_ops -->
<g id="edge3" class="edge">
<title>minitorch&#45;&gt;minitorch.cuda_ops</title>
<path fill="none" stroke="black" d="M694.51,-36.13C674.39,-60.97 636.99,-107.15 613.74,-135.86"/>
<polygon fill="black" stroke="black" points="607.3,-143.81 610.1,-133.21 610.45,-139.93 613.59,-136.04 613.59,-136.04 613.59,-136.04 610.45,-139.93 617.09,-138.87 607.3,-143.81 607.3,-143.81"/>
</g>
<!-- minitorch.datasets -->
<g id="node5" class="node">
<title>minitorch.datasets</title>
<polygon fill="none" stroke="black" points="1138.88,-108 987.88,-108 987.88,-72 1138.88,-72 1138.88,-108"/>
<text text-anchor="middle" x="1063.38" y="-86.3" font-family="Times,serif" font-size="14.00">minitorch.datasets</text>
</g>
<!-- minitorch&#45;&gt;minitorch.datasets -->
<g id="edge4" class="edge">
<title>minitorch&#45;&gt;minitorch.datasets</title>
<path fill="none" stroke="black" d="M751.55,-27.51C807.5,-38.54 906.31,-58.03 977.74,-72.11"/>
<polygon fill="black" stroke="black" points="987.63,-74.06 976.95,-76.54 982.72,-73.1 977.82,-72.13 977.82,-72.13 977.82,-72.13 982.72,-73.1 978.69,-67.71 987.63,-74.06 987.63,-74.06"/>
</g>
<!-- minitorch.fast_conv -->
<g id="node6" class="node">
<title>minitorch.fast_conv</title>
<polygon fill="none" stroke="black" points="306.88,-180 149.88,-180 149.88,-144 306.88,-144 306.88,-180"/>
<text text-anchor="middle" x="228.38" y="-158.3" font-family="Times,serif" font-size="14.00">minitorch.fast_conv</text>
</g>
<!-- minitorch&#45;&gt;minitorch.fast_conv -->
<g id="edge5" class="edge">
<title>minitorch&#45;&gt;minitorch.fast_conv</title>
<path fill="none" stroke="black" d="M665.28,-21.03C556.04,-26.56 274.8,-43.47 244.38,-72 227.88,-87.48 224.88,-113.73 225.42,-133.72"/>
<polygon fill="black" stroke="black" points="225.99,-143.8 220.93,-134.07 225.71,-138.81 225.42,-133.81 225.42,-133.81 225.42,-133.81 225.71,-138.81 229.92,-133.56 225.99,-143.8 225.99,-143.8"/>
</g>
<!-- minitorch.fast_ops -->
<g id="node7" class="node">
<title>minitorch.fast_ops</title>
<polygon fill="none" stroke="black" points="893.88,-180 744.88,-180 744.88,-144 893.88,-144 893.88,-180"/>
<text text-anchor="middle" x="819.38" y="-158.3" font-family="Times,serif" font-size="14.00">minitorch.fast_ops</text>
</g>
<!-- minitorch&#45;&gt;minitorch.fast_ops -->
<g id="edge6" class="edge">
<title>minitorch&#45;&gt;minitorch.fast_ops</title>
<path fill="none" stroke="black" d="M721.77,-36.13C741.18,-60.97 777.29,-107.15 799.72,-135.86"/>
<polygon fill="black" stroke="black" points="805.94,-143.81 796.24,-138.7 802.86,-139.87 799.78,-135.93 799.78,-135.93 799.78,-135.93 802.86,-139.87 803.33,-133.16 805.94,-143.81 805.94,-143.81"/>
</g>
<!-- minitorch.module -->
<g id="node8" class="node">
<title>minitorch.module</title>
<polygon fill="none" stroke="black" points="1285.88,-180 1142.88,-180 1142.88,-144 1285.88,-144 1285.88,-180"/>
<text text-anchor="middle" x="1214.38" y="-158.3" font-family="Times,serif" font-size="14.00">minitorch.module</text>
</g>
<!-- minitorch&#45;&gt;minitorch.module -->
<g id="edge7" class="edge">
<title>minitorch&#45;&gt;minitorch.module</title>
<path fill="none" stroke="black" d="M751.68,-19.92C848.98,-22.66 1081.6,-33.21 1148.38,-72 1173.19,-86.41 1191.49,-114.24 1202.45,-134.96"/>
<polygon fill="black" stroke="black" points="1206.96,-143.91 1198.44,-137.01 1204.71,-139.45 1202.46,-134.98 1202.46,-134.98 1202.46,-134.98 1204.71,-139.45 1206.48,-132.95 1206.96,-143.91 1206.96,-143.91"/>
</g>
<!-- minitorch.nn -->
<g id="node9" class="node">
<title>minitorch.nn</title>
<polygon fill="none" stroke="black" points="594.38,-108 486.38,-108 486.38,-72 594.38,-72 594.38,-108"/>
<text text-anchor="middle" x="540.38" y="-86.3" font-family="Times,serif" font-size="14.00">minitorch.nn</text>
</g>
<!-- minitorch&#45;&gt;minitorch.nn -->
<g id="edge8" class="edge">
<title>minitorch&#45;&gt;minitorch.nn</title>
<path fill="none" stroke="black" d="M667.28,-36.12C644.21,-45.74 615.24,-57.81 590.81,-67.99"/>
<polygon fill="black" stroke="black" points="581.34,-71.93 588.84,-63.93 585.96,-70.01 590.57,-68.09 590.57,-68.09 590.57,-68.09 585.96,-70.01 592.3,-72.24 581.34,-71.93 581.34,-71.93"/>
</g>
<!-- minitorch.optim -->
<g id="node11" class="node">
<title>minitorch.optim</title>
<polygon fill="none" stroke="black" points="1326.88,-108 1195.88,-108 1195.88,-72 1326.88,-72 1326.88,-108"/>
<text text-anchor="middle" x="1261.38" y="-86.3" font-family="Times,serif" font-size="14.00">minitorch.optim</text>
</g>
<!-- minitorch&#45;&gt;minitorch.optim -->
<g id="edge9" class="edge">
<title>minitorch&#45;&gt;minitorch.optim</title>
<path fill="none" stroke="black" d="M751.61,-22.42C835.05,-29.33 1023.95,-46.52 1181.38,-72 1182.68,-72.21 1183.99,-72.43 1185.31,-72.65"/>
<polygon fill="black" stroke="black" points="1195.55,-74.48 1184.92,-77.15 1190.63,-73.6 1185.71,-72.72 1185.71,-72.72 1185.71,-72.72 1190.63,-73.6 1186.5,-68.29 1195.55,-74.48 1195.55,-74.48"/>
</g>
<!-- minitorch.tensor -->
<g id="node12" class="node">
<title>minitorch.tensor</title>
<polygon fill="none" stroke="black" points="499.38,-252 363.38,-252 363.38,-216 499.38,-216 499.38,-252"/>
<text text-anchor="middle" x="431.38" y="-230.3" font-family="Times,serif" font-size="14.00">minitorch.tensor</text>
</g>
<!-- minitorch&#45;&gt;minitorch.tensor -->
<g id="edge10" class="edge">
<title>minitorch&#45;&gt;minitorch.tensor</title>
<path fill="none" stroke="black" d="M665.36,-24.07C606.59,-31.79 505.31,-48.15 477.38,-72 438.41,-105.27 431.3,-169.05 430.64,-205.56"/>
<polygon fill="black" stroke="black" points="430.62,-215.95 426.14,-205.94 430.63,-210.95 430.64,-205.95 430.64,-205.95 430.64,-205.95 430.63,-210.95 435.14,-205.96 430.62,-215.95 430.62,-215.95"/>
</g>
<!-- minitorch.tensor_data -->
<g id="node13" class="node">
<title>minitorch.tensor_data</title>
<polygon fill="none" stroke="black" points="607.38,-468 433.38,-468 433.38,-432 607.38,-432 607.38,-468"/>
<text text-anchor="middle" x="520.38" y="-446.3" font-family="Times,serif" font-size="14.00">minitorch.tensor_data</text>
</g>
<!-- minitorch&#45;&gt;minitorch.tensor_data -->
<g id="edge11" class="edge">
<title>minitorch&#45;&gt;minitorch.tensor_data</title>
<path fill="none" stroke="black" d="M751.53,-23.73C823.29,-34.24 959.38,-66.62 959.38,-161 959.38,-161 959.38,-161 959.38,-307 959.38,-378.34 746.88,-419.15 617.57,-437.37"/>
<polygon fill="black" stroke="black" points="607.63,-438.75 616.92,-432.92 612.59,-438.07 617.54,-437.38 617.54,-437.38 617.54,-437.38 612.59,-438.07 618.16,-441.84 607.63,-438.75 607.63,-438.75"/>
</g>
<!-- minitorch.tensor_functions -->
<g id="node14" class="node">
<title>minitorch.tensor_functions</title>
<polygon fill="none" stroke="black" points="538.88,-324 329.88,-324 329.88,-288 538.88,-288 538.88,-324"/>
<text text-anchor="middle" x="434.38" y="-302.3" font-family="Times,serif" font-size="14.00">minitorch.tensor_functions</text>
</g>
<!-- minitorch&#45;&gt;minitorch.tensor_functions -->
<g id="edge12" class="edge">
<title>minitorch&#45;&gt;minitorch.tensor_functions</title>
<path fill="none" stroke="black" d="M704.72,-36.19C702.94,-67.9 702.8,-136.33 670.38,-180 630.25,-234.05 560.02,-266.48 506.51,-284.71"/>
<polygon fill="black" stroke="black" points="496.73,-287.95 504.81,-280.53 501.48,-286.38 506.22,-284.8 506.22,-284.8 506.22,-284.8 501.48,-286.38 507.64,-289.08 496.73,-287.95 496.73,-287.95"/>
</g>
<!-- minitorch.tensor_ops -->
<g id="node15" class="node">
<title>minitorch.tensor_ops</title>
<polygon fill="none" stroke="black" points="659.88,-396 492.88,-396 492.88,-360 659.88,-360 659.88,-396"/>
<text text-anchor="middle" x="576.38" y="-374.3" font-family="Times,serif" font-size="14.00">minitorch.tensor_ops</text>
</g>
<!-- minitorch&#45;&gt;minitorch.tensor_ops -->
<g id="edge13" class="edge">
<title>minitorch&#45;&gt;minitorch.tensor_ops</title>
<path fill="none" stroke="black" d="M751.58,-32.11C819.93,-55.32 941.45,-108.08 902.38,-180 850.08,-276.26 728.95,-330.43 649.97,-356.68"/>
<polygon fill="black" stroke="black" points="640.08,-359.9 648.2,-352.53 644.83,-358.35 649.59,-356.81 649.59,-356.81 649.59,-356.81 644.83,-358.35 650.98,-361.08 640.08,-359.9 640.08,-359.9"/>
</g>
<!-- minitorch.cuda_conv&#45;&gt;minitorch.autodiff -->
<g id="edge14" class="edge">
<title>minitorch.cuda_conv&#45;&gt;minitorch.autodiff</title>
<path fill="none" stroke="black" d="M253.09,-99.4C195.44,-107.18 125.58,-121.09 107.38,-144 59.48,-204.31 90.94,-303.43 110.35,-350.54"/>
<polygon fill="black" stroke="black" points="114.27,-359.77 106.22,-352.33 112.31,-355.17 110.36,-350.57 110.36,-350.57 110.36,-350.57 112.31,-355.17 114.5,-348.81 114.27,-359.77 114.27,-359.77"/>
</g>
<!-- minitorch.cuda_conv&#45;&gt;minitorch.cuda_ops -->
<g id="edge15" class="edge">
<title>minitorch.cuda_conv&#45;&gt;minitorch.cuda_ops</title>
<path fill="none" stroke="black" d="M398.16,-108.03C434.99,-118.03 481.71,-130.7 520.2,-141.15"/>
<polygon fill="black" stroke="black" points="530.31,-143.89 519.48,-145.61 525.49,-142.58 520.66,-141.27 520.66,-141.27 520.66,-141.27 525.49,-142.58 521.84,-136.93 530.31,-143.89 530.31,-143.89"/>
</g>
<!-- minitorch.cuda_conv&#45;&gt;minitorch.tensor -->
<g id="edge16" class="edge">
<title>minitorch.cuda_conv&#45;&gt;minitorch.tensor</title>
<path fill="none" stroke="black" d="M346.96,-108.13C363.68,-132.86 394.71,-178.76 414.13,-207.49"/>
<polygon fill="black" stroke="black" points="419.76,-215.81 410.43,-210.05 416.96,-211.67 414.16,-207.53 414.16,-207.53 414.16,-207.53 416.96,-211.67 417.88,-205.01 419.76,-215.81 419.76,-215.81"/>
</g>
<!-- minitorch.cuda_conv&#45;&gt;minitorch.tensor_data -->
<g id="edge17" class="edge">
<title>minitorch.cuda_conv&#45;&gt;minitorch.tensor_data</title>
<path fill="none" stroke="black" d="M253.09,-98.77C189.57,-106.47 108.71,-120.59 85.38,-144 5.07,-224.59 -35.53,-311.25 40.38,-396 65.4,-423.94 290.02,-438.72 422.94,-445.08"/>
<polygon fill="black" stroke="black" points="433.13,-445.56 422.93,-449.59 428.14,-445.33 423.14,-445.09 423.14,-445.09 423.14,-445.09 428.14,-445.33 423.35,-440.6 433.13,-445.56 433.13,-445.56"/>
</g>
<!-- minitorch.cuda_conv&#45;&gt;minitorch.tensor_functions -->
<g id="edge18" class="edge">
<title>minitorch.cuda_conv&#45;&gt;minitorch.tensor_functions</title>
<path fill="none" stroke="black" d="M332.98,-108.01C329.5,-139.13 326.21,-206.21 354.38,-252 362.04,-264.45 373.84,-274.58 386.04,-282.54"/>
<polygon fill="black" stroke="black" points="394.95,-287.94 384.07,-286.6 390.68,-285.35 386.4,-282.75 386.4,-282.75 386.4,-282.75 390.68,-285.35 388.74,-278.91 394.95,-287.94 394.95,-287.94"/>
</g>
<!-- minitorch.cuda_ops&#45;&gt;minitorch.tensor -->
<g id="edge19" class="edge">
<title>minitorch.cuda_ops&#45;&gt;minitorch.tensor</title>
<path fill="none" stroke="black" d="M553.75,-180.12C531.6,-189.69 503.82,-201.7 480.32,-211.85"/>
<polygon fill="black" stroke="black" points="470.88,-215.93 478.27,-207.83 475.47,-213.95 480.06,-211.97 480.06,-211.97 480.06,-211.97 475.47,-213.95 481.84,-216.1 470.88,-215.93 470.88,-215.93"/>
</g>
<!-- minitorch.cuda_ops&#45;&gt;minitorch.tensor_data -->
<g id="edge20" class="edge">
<title>minitorch.cuda_ops&#45;&gt;minitorch.tensor_data</title>
<path fill="none" stroke="black" d="M608.33,-180.06C642.16,-220.8 717.92,-325.64 668.38,-396 656.03,-413.53 637.33,-425.29 617.33,-433.18"/>
<polygon fill="black" stroke="black" points="607.75,-436.64 615.63,-429.01 612.45,-434.94 617.16,-433.24 617.16,-433.24 617.16,-433.24 612.45,-434.94 618.68,-437.47 607.75,-436.64 607.75,-436.64"/>
</g>
<!-- minitorch.cuda_ops&#45;&gt;minitorch.tensor_ops -->
<g id="edge21" class="edge">
<title>minitorch.cuda_ops&#45;&gt;minitorch.tensor_ops</title>
<path fill="none" stroke="black" d="M592.02,-180.15C589.07,-217.17 582.11,-304.82 578.55,-349.61"/>
<polygon fill="black" stroke="black" points="577.75,-359.77 574.05,-349.44 578.14,-354.78 578.54,-349.8 578.54,-349.8 578.54,-349.8 578.14,-354.78 583.02,-350.16 577.75,-359.77 577.75,-359.77"/>
</g>
<!-- minitorch.fast_conv&#45;&gt;minitorch.autodiff -->
<g id="edge22" class="edge">
<title>minitorch.fast_conv&#45;&gt;minitorch.autodiff</title>
<path fill="none" stroke="black" d="M219.88,-180.15C201.39,-217.48 157.39,-306.31 135.38,-350.74"/>
<polygon fill="black" stroke="black" points="130.91,-359.77 131.32,-348.81 133.13,-355.29 135.35,-350.81 135.35,-350.81 135.35,-350.81 133.13,-355.29 139.38,-352.8 130.91,-359.77 130.91,-359.77"/>
</g>
<!-- minitorch.fast_conv&#45;&gt;minitorch.tensor -->
<g id="edge23" class="edge">
<title>minitorch.fast_conv&#45;&gt;minitorch.tensor</title>
<path fill="none" stroke="black" d="M277.78,-180.03C306.26,-189.86 342.26,-202.27 372.25,-212.61"/>
<polygon fill="black" stroke="black" points="381.76,-215.89 370.84,-216.88 377.03,-214.26 372.3,-212.63 372.3,-212.63 372.3,-212.63 377.03,-214.26 373.77,-208.38 381.76,-215.89 381.76,-215.89"/>
</g>
<!-- minitorch.fast_conv&#45;&gt;minitorch.tensor_data -->
<g id="edge24" class="edge">
<title>minitorch.fast_conv&#45;&gt;minitorch.tensor_data</title>
<path fill="none" stroke="black" d="M232.24,-180.26C242.78,-223.34 276.14,-336.4 347.38,-396 368.94,-414.04 396.58,-425.95 423.4,-433.8"/>
<polygon fill="black" stroke="black" points="433.23,-436.51 422.39,-438.19 428.41,-435.18 423.59,-433.85 423.59,-433.85 423.59,-433.85 428.41,-435.18 424.79,-429.52 433.23,-436.51 433.23,-436.51"/>
</g>
<!-- minitorch.fast_conv&#45;&gt;minitorch.tensor_functions -->
<g id="edge25" class="edge">
<title>minitorch.fast_conv&#45;&gt;minitorch.tensor_functions</title>
<path fill="none" stroke="black" d="M243.12,-180.14C260.4,-199.45 290.6,-230.9 321.38,-252 339.42,-264.37 360.81,-275.23 380.1,-283.84"/>
<polygon fill="black" stroke="black" points="389.38,-287.89 378.42,-288.02 384.8,-285.89 380.21,-283.89 380.21,-283.89 380.21,-283.89 384.8,-285.89 382.01,-279.77 389.38,-287.89 389.38,-287.89"/>
</g>
<!-- minitorch.fast_ops&#45;&gt;minitorch.tensor -->
<g id="edge42" class="edge">
<title>minitorch.fast_ops&#45;&gt;minitorch.tensor</title>
<path fill="none" stroke="black" stroke-dasharray="5,2" d="M744.57,-176.5C676.98,-188.69 577.89,-206.57 509.35,-218.93"/>
<polygon fill="black" stroke="black" points="499.46,-220.72 508.5,-214.51 504.38,-219.83 509.3,-218.94 509.3,-218.94 509.3,-218.94 504.38,-219.83 510.1,-223.37 499.46,-220.72 499.46,-220.72"/>
</g>
<!-- minitorch.fast_ops&#45;&gt;minitorch.tensor_data -->
<g id="edge26" class="edge">
<title>minitorch.fast_ops&#45;&gt;minitorch.tensor_data</title>
<path fill="none" stroke="black" d="M814.72,-180.24C802.19,-223.29 763.68,-336.27 690.38,-396 669.44,-413.06 643.01,-424.64 617.26,-432.51"/>
<polygon fill="black" stroke="black" points="607.44,-435.34 615.79,-428.25 612.24,-433.96 617.04,-432.57 617.04,-432.57 617.04,-432.57 612.24,-433.96 618.29,-436.89 607.44,-435.34 607.44,-435.34"/>
</g>
<!-- minitorch.fast_ops&#45;&gt;minitorch.tensor_ops -->
<g id="edge27" class="edge">
<title>minitorch.fast_ops&#45;&gt;minitorch.tensor_ops</title>
<path fill="none" stroke="black" d="M803.38,-180.3C786.15,-198.66 757.66,-228.25 731.38,-252 689.94,-289.45 639.07,-329.42 607.18,-353.81"/>
<polygon fill="black" stroke="black" points="599.1,-359.96 604.33,-350.32 603.08,-356.93 607.06,-353.9 607.06,-353.9 607.06,-353.9 603.08,-356.93 609.78,-357.48 599.1,-359.96 599.1,-359.96"/>
</g>
<!-- minitorch.nn&#45;&gt;minitorch.autodiff -->
<g id="edge28" class="edge">
<title>minitorch.nn&#45;&gt;minitorch.autodiff</title>
<path fill="none" stroke="black" d="M486.19,-99.34C467.28,-102.18 445.9,-105.32 426.38,-108 362.92,-116.72 184.57,-97.63 140.38,-144 112.89,-172.84 116.99,-294.58 120.38,-349.69"/>
<polygon fill="black" stroke="black" points="121.04,-359.78 115.9,-350.09 120.71,-354.79 120.39,-349.8 120.39,-349.8 120.39,-349.8 120.71,-354.79 124.88,-349.5 121.04,-359.78 121.04,-359.78"/>
</g>
<!-- minitorch.nn&#45;&gt;minitorch.cuda_ops -->
<g id="edge29" class="edge">
<title>minitorch.nn&#45;&gt;minitorch.cuda_ops</title>
<path fill="none" stroke="black" d="M553.48,-108.3C559.77,-116.61 567.43,-126.72 574.34,-135.86"/>
<polygon fill="black" stroke="black" points="580.43,-143.9 570.8,-138.64 577.41,-139.91 574.39,-135.92 574.39,-135.92 574.39,-135.92 577.41,-139.91 577.98,-133.21 580.43,-143.9 580.43,-143.9"/>
</g>
<!-- minitorch.nn&#45;&gt;minitorch.fast_ops -->
<g id="edge30" class="edge">
<title>minitorch.nn&#45;&gt;minitorch.fast_ops</title>
<path fill="none" stroke="black" d="M594.5,-104.58C636.37,-115.08 694.91,-129.77 741.77,-141.53"/>
<polygon fill="black" stroke="black" points="751.58,-143.99 740.78,-145.92 746.73,-142.77 741.88,-141.56 741.88,-141.56 741.88,-141.56 746.73,-142.77 742.97,-137.19 751.58,-143.99 751.58,-143.99"/>
</g>
<!-- minitorch.nn&#45;&gt;minitorch.tensor -->
<g id="edge31" class="edge">
<title>minitorch.nn&#45;&gt;minitorch.tensor</title>
<path fill="none" stroke="black" d="M513.11,-108.18C499.86,-117.55 484.45,-130.06 473.38,-144 458.43,-162.83 447.22,-187.84 440.16,-206.56"/>
<polygon fill="black" stroke="black" points="436.76,-215.97 435.93,-205.03 438.46,-211.27 440.16,-206.56 440.16,-206.56 440.16,-206.56 438.46,-211.27 444.39,-208.1 436.76,-215.97 436.76,-215.97"/>
</g>
<!-- minitorch.nn&#45;&gt;minitorch.tensor_functions -->
<g id="edge32" class="edge">
<title>minitorch.nn&#45;&gt;minitorch.tensor_functions</title>
<path fill="none" stroke="black" d="M525.62,-108.37C518.29,-118.15 510.19,-130.99 506.38,-144 492.87,-190.07 530.32,-209.3 508.38,-252 502.1,-264.21 491.57,-274.23 480.39,-282.15"/>
<polygon fill="black" stroke="black" points="471.77,-287.8 477.67,-278.55 475.95,-285.06 480.13,-282.32 480.13,-282.32 480.13,-282.32 475.95,-285.06 482.6,-286.08 471.77,-287.8 471.77,-287.8"/>
</g>
<!-- minitorch.operators -->
<g id="node10" class="node">
<title>minitorch.operators</title>
<polygon fill="none" stroke="black" points="599.88,-540 440.88,-540 440.88,-504 599.88,-504 599.88,-540"/>
<text text-anchor="middle" x="520.38" y="-518.3" font-family="Times,serif" font-size="14.00">minitorch.operators</text>
</g>
<!-- minitorch.optim&#45;&gt;minitorch.module -->
<g id="edge33" class="edge">
<title>minitorch.optim&#45;&gt;minitorch.module</title>
<path fill="none" stroke="black" d="M1249.76,-108.3C1244.24,-116.53 1237.53,-126.52 1231.45,-135.58"/>
<polygon fill="black" stroke="black" points="1225.86,-143.9 1227.7,-133.08 1228.65,-139.74 1231.44,-135.59 1231.44,-135.59 1231.44,-135.59 1228.65,-139.74 1235.17,-138.1 1225.86,-143.9 1225.86,-143.9"/>
</g>
<!-- minitorch.tensor&#45;&gt;minitorch.autodiff -->
<g id="edge34" class="edge">
<title>minitorch.tensor&#45;&gt;minitorch.autodiff</title>
<path fill="none" stroke="black" d="M379.69,-252.03C351.94,-261.66 317.37,-274.47 287.38,-288 242.36,-308.3 192.74,-335.8 159.79,-354.84"/>
<polygon fill="black" stroke="black" points="150.96,-359.97 157.34,-351.06 155.28,-357.46 159.6,-354.95 159.6,-354.95 159.6,-354.95 155.28,-357.46 161.86,-358.84 150.96,-359.97 150.96,-359.97"/>
</g>
<!-- minitorch.tensor&#45;&gt;minitorch.tensor_data -->
<g id="edge35" class="edge">
<title>minitorch.tensor&#45;&gt;minitorch.tensor_data</title>
<path fill="none" stroke="black" d="M365.69,-252.05C347.95,-259.99 330.8,-271.47 320.38,-288 311.84,-301.53 312.62,-310.01 320.38,-324 349.16,-375.93 409.51,-409.14 456.43,-428.17"/>
<polygon fill="black" stroke="black" points="465.92,-431.9 454.96,-432.43 461.26,-430.07 456.61,-428.24 456.61,-428.24 456.61,-428.24 461.26,-430.07 458.26,-424.06 465.92,-431.9 465.92,-431.9"/>
</g>
<!-- minitorch.tensor&#45;&gt;minitorch.tensor_functions -->
<g id="edge36" class="edge">
<title>minitorch.tensor&#45;&gt;minitorch.tensor_functions</title>
<path fill="none" stroke="black" d="M426.2,-252.3C425.74,-260.02 425.91,-269.29 426.62,-277.89"/>
<polygon fill="black" stroke="black" points="427.75,-287.9 422.16,-278.46 427.19,-282.93 426.63,-277.96 426.63,-277.96 426.63,-277.96 427.19,-282.93 431.1,-277.45 427.75,-287.9 427.75,-287.9"/>
</g>
<!-- minitorch.tensor&#45;&gt;minitorch.tensor_ops -->
<g id="edge43" class="edge">
<title>minitorch.tensor&#45;&gt;minitorch.tensor_ops</title>
<path fill="none" stroke="black" stroke-dasharray="5,2" d="M484.1,-252.02C503.34,-260.13 523.86,-271.73 538.38,-288 553.79,-305.27 561.03,-330.86 565.97,-350.18"/>
<polygon fill="black" stroke="black" points="568.44,-359.9 561.61,-351.32 567.21,-355.06 565.97,-350.21 565.97,-350.21 565.97,-350.21 567.21,-355.06 570.33,-349.1 568.44,-359.9 568.44,-359.9"/>
</g>
<!-- minitorch.tensor_data&#45;&gt;minitorch.operators -->
<g id="edge37" class="edge">
<title>minitorch.tensor_data&#45;&gt;minitorch.operators</title>
<path fill="none" stroke="black" d="M520.38,-468.3C520.38,-476.02 520.38,-485.29 520.38,-493.89"/>
<polygon fill="black" stroke="black" points="520.38,-503.9 515.88,-493.9 520.38,-498.9 520.38,-493.9 520.38,-493.9 520.38,-493.9 520.38,-498.9 524.88,-493.9 520.38,-503.9 520.38,-503.9"/>
</g>
<!-- minitorch.tensor_functions&#45;&gt;minitorch -->
<g id="edge38" class="edge">
<title>minitorch.tensor_functions&#45;&gt;minitorch</title>
<path fill="none" stroke="black" d="M511.13,-287.95C569.16,-270.43 645.75,-237.41 688.38,-180 717.63,-140.6 720.61,-81.03 716.68,-46.48"/>
<polygon fill="black" stroke="black" points="715.19,-36.19 721.08,-45.44 715.91,-41.14 716.63,-46.09 716.63,-46.09 716.63,-46.09 715.91,-41.14 712.17,-46.74 715.19,-36.19 715.19,-36.19"/>
</g>
<!-- minitorch.tensor_functions&#45;&gt;minitorch.autodiff -->
<g id="edge39" class="edge">
<title>minitorch.tensor_functions&#45;&gt;minitorch.autodiff</title>
<path fill="none" stroke="black" d="M358.45,-324.03C311.97,-334.46 252.49,-347.81 204.85,-358.5"/>
<polygon fill="black" stroke="black" points="194.88,-360.73 203.65,-354.15 199.76,-359.64 204.64,-358.54 204.64,-358.54 204.64,-358.54 199.76,-359.64 205.62,-362.94 194.88,-360.73 194.88,-360.73"/>
</g>
<!-- minitorch.tensor_functions&#45;&gt;minitorch.tensor -->
<g id="edge44" class="edge">
<title>minitorch.tensor_functions&#45;&gt;minitorch.tensor</title>
<path fill="none" stroke="black" stroke-dasharray="5,2" d="M439.54,-287.9C440.02,-280.21 439.86,-270.95 439.15,-262.33"/>
<polygon fill="black" stroke="black" points="438.04,-252.3 443.62,-261.74 438.59,-257.27 439.14,-262.24 439.14,-262.24 439.14,-262.24 438.59,-257.27 434.67,-262.74 438.04,-252.3 438.04,-252.3"/>
</g>
<!-- minitorch.tensor_functions&#45;&gt;minitorch.tensor_data -->
<g id="edge45" class="edge">
<title>minitorch.tensor_functions&#45;&gt;minitorch.tensor_data</title>
<path fill="none" stroke="black" stroke-dasharray="5,2" d="M443.07,-324.04C452.48,-342.18 468.19,-371.59 483.38,-396 489.07,-405.15 495.69,-414.89 501.75,-423.49"/>
<polygon fill="black" stroke="black" points="507.57,-431.65 498.1,-426.12 504.66,-427.58 501.76,-423.51 501.76,-423.51 501.76,-423.51 504.66,-427.58 505.43,-420.89 507.57,-431.65 507.57,-431.65"/>
</g>
<!-- minitorch.tensor_functions&#45;&gt;minitorch.tensor_ops -->
<g id="edge40" class="edge">
<title>minitorch.tensor_functions&#45;&gt;minitorch.tensor_ops</title>
<path fill="none" stroke="black" d="M469.11,-324.12C488.2,-333.53 512.06,-345.29 532.42,-355.33"/>
<polygon fill="black" stroke="black" points="541.51,-359.81 530.55,-359.42 537.02,-357.6 532.54,-355.39 532.54,-355.39 532.54,-355.39 537.02,-357.6 534.53,-351.35 541.51,-359.81 541.51,-359.81"/>
</g>
<!-- minitorch.tensor_ops&#45;&gt;minitorch.tensor -->
<g id="edge46" class="edge">
<title>minitorch.tensor_ops&#45;&gt;minitorch.tensor</title>
<path fill="none" stroke="black" stroke-dasharray="5,2" d="M581.35,-359.9C581.36,-340.33 574.56,-308.37 556.38,-288 543.7,-273.79 526.44,-263.15 508.78,-255.28"/>
<polygon fill="black" stroke="black" points="499.53,-251.41 510.49,-251.12 504.14,-253.34 508.76,-255.27 508.76,-255.27 508.76,-255.27 504.14,-253.34 507.02,-259.42 499.53,-251.41 499.53,-251.41"/>
</g>
<!-- minitorch.tensor_ops&#45;&gt;minitorch.tensor_data -->
<g id="edge41" class="edge">
<title>minitorch.tensor_ops&#45;&gt;minitorch.tensor_data</title>
<path fill="none" stroke="black" d="M562.54,-396.3C555.89,-404.61 547.8,-414.72 540.49,-423.86"/>
<polygon fill="black" stroke="black" points="534.06,-431.9 536.79,-421.28 537.18,-427.99 540.31,-424.09 540.31,-424.09 540.31,-424.09 537.18,-427.99 543.82,-426.9 534.06,-431.9 534.06,-431.9"/>
</g>
</g>
</svg>
